<?xml version="1.0"?>
<svg xmlns="http://www.w3.org/2000/svg" xmlns:xlink="http://www.w3.org/1999/xlink" viewBox="0 0 137.64 137.64">
  <defs>
    <style>.cls-1{fill:url(#linear-gradient);}.cls-2{fill:#211c5b;}</style>
    <linearGradient id="linear-gradient" x1="68.82" y1="137.64" x2="68.82" gradientUnits="userSpaceOnUse">
      <stop offset="0" stop-color="#2484c6"/>
      <stop offset="0.24" stop-color="#2484c6" stop-opacity="0.98"/>
      <stop offset="0.43" stop-color="#2484c6" stop-opacity="0.93"/>
      <stop offset="0.61" stop-color="#2484c6" stop-opacity="0.85"/>
      <stop offset="0.78" stop-color="#2484c6" stop-opacity="0.73"/>
      <stop offset="0.94" stop-color="#2484c6" stop-opacity="0.57"/>
      <stop offset="1" stop-color="#2484c6" stop-opacity="0.5"/>
    </linearGradient>
  </defs>
  <title>Budget Board Logo</title>
  <g id="Layer_2" data-name="Layer 2">
    <g id="Layer_1-2" data-name="Layer 1">
      <path class="cls-1" d="M105.63,137.64H32a32,32,0,0,1-32-32V32A32,32,0,0,1,32,0h73.62a32,32,0,0,1,32,32v73.62A32,32,0,0,1,105.63,137.64Z"/>
      <path class="cls-2" d="M56.44,53.88a17.58,17.58,0,0,1,6.87,6.84A20.22,20.22,0,0,1,65.8,70.87a20.43,20.43,0,0,1-2.49,10.19,17.55,17.55,0,0,1-6.87,6.88,20.08,20.08,0,0,1-9.94,2.44,18.1,18.1,0,0,1-7.77-1.65,15,15,0,0,1-5.84-4.83v6H26.27V36.53h6.91v21A14.76,14.76,0,0,1,38.94,53a18.35,18.35,0,0,1,7.56-1.55A20.09,20.09,0,0,1,56.44,53.88ZM52.51,82.64a12.11,12.11,0,0,0,4.61-4.75,15.43,15.43,0,0,0,0-14,11.88,11.88,0,0,0-4.61-4.71,13.83,13.83,0,0,0-13.14,0,11.53,11.53,0,0,0-4.6,4.71,15.67,15.67,0,0,0,0,14,11.76,11.76,0,0,0,4.6,4.75,13.55,13.55,0,0,0,13.14,0Z"/>
      <path class="cls-2" d="M105.54,53.88a17.6,17.6,0,0,1,6.88,6.84,20.32,20.32,0,0,1,2.48,10.15,20.53,20.53,0,0,1-2.48,10.19,17.57,17.57,0,0,1-6.88,6.88,20.07,20.07,0,0,1-9.93,2.44,18.11,18.11,0,0,1-7.78-1.65A14.93,14.93,0,0,1,82,83.9v6H75.37V36.53h6.91v21A14.76,14.76,0,0,1,88,53a18.37,18.37,0,0,1,7.57-1.55A20.08,20.08,0,0,1,105.54,53.88Zm-3.92,28.76a12.09,12.09,0,0,0,4.6-4.75,15.34,15.34,0,0,0,0-14,11.85,11.85,0,0,0-4.6-4.71,13.83,13.83,0,0,0-13.14,0,11.56,11.56,0,0,0-4.61,4.71,15.67,15.67,0,0,0,0,14,11.78,11.78,0,0,0,4.61,4.75,13.55,13.55,0,0,0,13.14,0Z"/>
    </g>
  </g>
</svg>

